<?xml version="1.0" encoding="UTF-8"?>
<!DOCTYPE svg
PUBLIC "-//W3C//DTD SVG 1.1//EN"
       "http://www.w3.org/Graphics/SVG/1.1/DTD/svg11.dtd">
<svg viewBox="131 11 1602 1437" width="1471px" height="1426px" xmlns="http://www.w3.org/2000/svg" version="1.1">
   <line x1="746" y1="274" x2="736" y2="274" style="stroke:#333;stroke-width:1;"/>
   <line x1="569" y1="132" x2="559" y2="132" style="stroke:#333;stroke-width:1;"/>
   <line x1="736" y1="274" x2="569" y2="132" style="stroke:#333;stroke-width:1;"/>
   <line x1="738.5" y1="274" x2="742.03553390593" y2="277.53553390593" style="stroke:#333;stroke-width:2;"/>
   <line x1="738.5" y1="274" x2="742.03553390593" y2="270.46446609407" style="stroke:#333;stroke-width:2;"/>
   <line x1="564" y1="132" x2="567.53553390593" y2="135.53553390593" style="stroke:#333;stroke-width:2;"/>
   <line x1="564" y1="132" x2="567.53553390593" y2="128.46446609407" style="stroke:#333;stroke-width:2;"/>
   <line x1="1443" y1="1139" x2="1433" y2="1139" style="stroke:#333;stroke-width:1;"/>
   <line x1="1231" y1="1098" x2="1221" y2="1098" style="stroke:#333;stroke-width:1;"/>
   <line x1="1433" y1="1139" x2="1231" y2="1098" style="stroke:#333;stroke-width:1;"/>
   <line x1="1435.5" y1="1139" x2="1439.0355339059" y2="1142.5355339059" style="stroke:#333;stroke-width:2;"/>
   <line x1="1435.5" y1="1139" x2="1439.0355339059" y2="1135.4644660941" style="stroke:#333;stroke-width:2;"/>
   <line x1="1226" y1="1098" x2="1229.5355339059" y2="1101.5355339059" style="stroke:#333;stroke-width:2;"/>
   <line x1="1226" y1="1098" x2="1229.5355339059" y2="1094.4644660941" style="stroke:#333;stroke-width:2;"/>
   <line x1="411" y1="1112" x2="401" y2="1112" style="stroke:#333;stroke-width:1;"/>
   <line x1="311" y1="1096" x2="301" y2="1096" style="stroke:#333;stroke-width:1;"/>
   <line x1="401" y1="1112" x2="311" y2="1096" style="stroke:#333;stroke-width:1;"/>
   <line x1="403.5" y1="1112" x2="407.03553390593" y2="1115.5355339059" style="stroke:#333;stroke-width:2;"/>
   <line x1="403.5" y1="1112" x2="407.03553390593" y2="1108.4644660941" style="stroke:#333;stroke-width:2;"/>
   <line x1="306" y1="1096" x2="309.53553390593" y2="1099.5355339059" style="stroke:#333;stroke-width:2;"/>
   <line x1="306" y1="1096" x2="309.53553390593" y2="1092.4644660941" style="stroke:#333;stroke-width:2;"/>
   <line x1="409" y1="674" x2="399" y2="674" style="stroke:#333;stroke-width:1;"/>
   <line x1="312" y1="636" x2="302" y2="636" style="stroke:#333;stroke-width:1;"/>
   <line x1="399" y1="674" x2="312" y2="636" style="stroke:#333;stroke-width:1;"/>
   <line x1="401.5" y1="674" x2="405.03553390593" y2="677.53553390593" style="stroke:#333;stroke-width:2;"/>
   <line x1="401.5" y1="674" x2="405.03553390593" y2="670.46446609407" style="stroke:#333;stroke-width:2;"/>
   <line x1="307" y1="636" x2="310.53553390593" y2="639.53553390593" style="stroke:#333;stroke-width:2;"/>
   <line x1="307" y1="636" x2="310.53553390593" y2="632.46446609407" style="stroke:#333;stroke-width:2;"/>
   <line x1="409" y1="734" x2="399" y2="734" style="stroke:#333;stroke-width:1;"/>
   <line x1="309" y1="797" x2="299" y2="797" style="stroke:#333;stroke-width:1;"/>
   <line x1="399" y1="734" x2="309" y2="797" style="stroke:#333;stroke-width:1;"/>
   <line x1="401.5" y1="734" x2="405.03553390593" y2="737.53553390593" style="stroke:#333;stroke-width:2;"/>
   <line x1="401.5" y1="734" x2="405.03553390593" y2="730.46446609407" style="stroke:#333;stroke-width:2;"/>
   <line x1="304" y1="797" x2="307.53553390593" y2="800.53553390593" style="stroke:#333;stroke-width:2;"/>
   <line x1="304" y1="797" x2="307.53553390593" y2="793.46446609407" style="stroke:#333;stroke-width:2;"/>
   <line x1="409" y1="754" x2="399" y2="754" style="stroke:#333;stroke-width:1;"/>
   <line x1="309" y1="797" x2="299" y2="797" style="stroke:#333;stroke-width:1;"/>
   <line x1="399" y1="754" x2="309" y2="797" style="stroke:#333;stroke-width:1;"/>
   <line x1="401.5" y1="754" x2="405.03553390593" y2="757.53553390593" style="stroke:#333;stroke-width:2;"/>
   <line x1="401.5" y1="754" x2="405.03553390593" y2="750.46446609407" style="stroke:#333;stroke-width:2;"/>
   <line x1="304" y1="797" x2="307.53553390593" y2="800.53553390593" style="stroke:#333;stroke-width:2;"/>
   <line x1="304" y1="797" x2="307.53553390593" y2="793.46446609407" style="stroke:#333;stroke-width:2;"/>
   <line x1="290" y1="149" x2="300" y2="149" style="stroke:#333;stroke-width:1;"/>
   <line x1="405" y1="132" x2="415" y2="132" style="stroke:#333;stroke-width:1;"/>
   <line x1="300" y1="149" x2="405" y2="132" style="stroke:#333;stroke-width:1;"/>
   <line x1="297.5" y1="149" x2="293.96446609407" y2="152.53553390593" style="stroke:#333;stroke-width:2;"/>
   <line x1="297.5" y1="149" x2="293.96446609407" y2="145.46446609407" style="stroke:#333;stroke-width:2;"/>
   <line x1="410" y1="132" x2="406.46446609407" y2="135.53553390593" style="stroke:#333;stroke-width:2;"/>
   <line x1="410" y1="132" x2="406.46446609407" y2="128.46446609407" style="stroke:#333;stroke-width:2;"/>
   <line x1="1393" y1="78" x2="1383" y2="78" style="stroke:#333;stroke-width:1;"/>
   <line x1="1245" y1="57" x2="1235" y2="57" style="stroke:#333;stroke-width:1;"/>
   <line x1="1383" y1="78" x2="1245" y2="57" style="stroke:#333;stroke-width:1;"/>
   <line x1="1385.5" y1="78" x2="1389.0355339059" y2="81.535533905933" style="stroke:#333;stroke-width:2;"/>
   <line x1="1385.5" y1="78" x2="1389.0355339059" y2="74.464466094067" style="stroke:#333;stroke-width:2;"/>
   <line x1="1240" y1="57" x2="1243.5355339059" y2="60.535533905933" style="stroke:#333;stroke-width:2;"/>
   <line x1="1240" y1="57" x2="1243.5355339059" y2="53.464466094067" style="stroke:#333;stroke-width:2;"/>
   <line x1="747" y1="675" x2="737" y2="675" style="stroke:#333;stroke-width:1;"/>
   <line x1="569" y1="132" x2="559" y2="132" style="stroke:#333;stroke-width:1;"/>
   <line x1="737" y1="675" x2="569" y2="132" style="stroke:#333;stroke-width:1;"/>
   <line x1="739.5" y1="675" x2="743.03553390593" y2="678.53553390593" style="stroke:#333;stroke-width:2;"/>
   <line x1="739.5" y1="675" x2="743.03553390593" y2="671.46446609407" style="stroke:#333;stroke-width:2;"/>
   <line x1="564" y1="132" x2="567.53553390593" y2="135.53553390593" style="stroke:#333;stroke-width:2;"/>
   <line x1="564" y1="132" x2="567.53553390593" y2="128.46446609407" style="stroke:#333;stroke-width:2;"/>
   <line x1="747" y1="695" x2="737" y2="695" style="stroke:#333;stroke-width:1;"/>
   <line x1="563" y1="634" x2="553" y2="634" style="stroke:#333;stroke-width:1;"/>
   <line x1="737" y1="695" x2="563" y2="634" style="stroke:#333;stroke-width:1;"/>
   <line x1="739.5" y1="695" x2="743.03553390593" y2="698.53553390593" style="stroke:#333;stroke-width:2;"/>
   <line x1="739.5" y1="695" x2="743.03553390593" y2="691.46446609407" style="stroke:#333;stroke-width:2;"/>
   <line x1="558" y1="634" x2="561.53553390593" y2="637.53553390593" style="stroke:#333;stroke-width:2;"/>
   <line x1="558" y1="634" x2="561.53553390593" y2="630.46446609407" style="stroke:#333;stroke-width:2;"/>
   <line x1="756" y1="76" x2="746" y2="76" style="stroke:#333;stroke-width:1;"/>
   <line x1="569" y1="132" x2="559" y2="132" style="stroke:#333;stroke-width:1;"/>
   <line x1="746" y1="76" x2="569" y2="132" style="stroke:#333;stroke-width:1;"/>
   <line x1="748.5" y1="76" x2="752.03553390593" y2="79.535533905933" style="stroke:#333;stroke-width:2;"/>
   <line x1="748.5" y1="76" x2="752.03553390593" y2="72.464466094067" style="stroke:#333;stroke-width:2;"/>
   <line x1="564" y1="132" x2="567.53553390593" y2="135.53553390593" style="stroke:#333;stroke-width:2;"/>
   <line x1="564" y1="132" x2="567.53553390593" y2="128.46446609407" style="stroke:#333;stroke-width:2;"/>
   <line x1="1072" y1="771" x2="1062" y2="771" style="stroke:#333;stroke-width:1;"/>
   <line x1="901" y1="655" x2="891" y2="655" style="stroke:#333;stroke-width:1;"/>
   <line x1="1062" y1="771" x2="901" y2="655" style="stroke:#333;stroke-width:1;"/>
   <line x1="1064.5" y1="771" x2="1068.0355339059" y2="774.53553390593" style="stroke:#333;stroke-width:2;"/>
   <line x1="1064.5" y1="771" x2="1068.0355339059" y2="767.46446609407" style="stroke:#333;stroke-width:2;"/>
   <line x1="896" y1="655" x2="899.53553390593" y2="658.53553390593" style="stroke:#333;stroke-width:2;"/>
   <line x1="896" y1="655" x2="899.53553390593" y2="651.46446609407" style="stroke:#333;stroke-width:2;"/>
   <line x1="749" y1="1076" x2="739" y2="1076" style="stroke:#333;stroke-width:1;"/>
   <line x1="565" y1="1092" x2="555" y2="1092" style="stroke:#333;stroke-width:1;"/>
   <line x1="739" y1="1076" x2="565" y2="1092" style="stroke:#333;stroke-width:1;"/>
   <line x1="741.5" y1="1076" x2="745.03553390593" y2="1079.5355339059" style="stroke:#333;stroke-width:2;"/>
   <line x1="741.5" y1="1076" x2="745.03553390593" y2="1072.4644660941" style="stroke:#333;stroke-width:2;"/>
   <line x1="560" y1="1092" x2="563.53553390593" y2="1095.5355339059" style="stroke:#333;stroke-width:2;"/>
   <line x1="560" y1="1092" x2="563.53553390593" y2="1088.4644660941" style="stroke:#333;stroke-width:2;"/>
   <line x1="1072" y1="532" x2="1062" y2="532" style="stroke:#333;stroke-width:1;"/>
   <line x1="901" y1="655" x2="891" y2="655" style="stroke:#333;stroke-width:1;"/>
   <line x1="1062" y1="532" x2="901" y2="655" style="stroke:#333;stroke-width:1;"/>
   <line x1="1064.5" y1="532" x2="1068.0355339059" y2="535.53553390593" style="stroke:#333;stroke-width:2;"/>
   <line x1="1064.5" y1="532" x2="1068.0355339059" y2="528.46446609407" style="stroke:#333;stroke-width:2;"/>
   <line x1="896" y1="655" x2="899.53553390593" y2="658.53553390593" style="stroke:#333;stroke-width:2;"/>
   <line x1="896" y1="655" x2="899.53553390593" y2="651.46446609407" style="stroke:#333;stroke-width:2;"/>
   <rect width="144" height="20" x="1091" y="27" style="fill:#007;stroke:black;"/>
   <text width="144" height="20" x="1096" y="41" style="fill:#fff;" font-family="Arial" font-size="16px"> aircraft_models</text>
   <rect width="144" height="20" x="1091" y="47" style="fill:none;stroke:black;"/>
   <text width="144" height="20" x="1096" y="61" style="fill:black;" font-family="Arial" font-size="16px">model_number</text>
   <rect width="144" height="20" x="1091" y="67" style="fill:none;stroke:black;"/>
   <text width="144" height="20" x="1096" y="81" style="fill:black;" font-family="Arial" font-size="16px">manufacturer</text>
   <rect width="144" height="20" x="1091" y="87" style="fill:none;stroke:black;"/>
   <text width="144" height="20" x="1096" y="101" style="fill:black;" font-family="Arial" font-size="16px">model</text>
   <rect width="144" height="20" x="1091" y="107" style="fill:none;stroke:black;"/>
   <text width="144" height="20" x="1096" y="121" style="fill:black;" font-family="Arial" font-size="16px">seats</text>
   <rect width="144" height="20" x="158" y="606" style="fill:#007;stroke:black;"/>
   <text width="144" height="20" x="163" y="620" style="fill:#fff;" font-family="Arial" font-size="16px"> airlines</text>
   <rect width="144" height="20" x="158" y="626" style="fill:none;stroke:black;"/>
   <text width="144" height="20" x="163" y="640" style="fill:black;" font-family="Arial" font-size="16px">AL_code</text>
   <rect width="144" height="20" x="158" y="646" style="fill:none;stroke:black;"/>
   <text width="144" height="20" x="163" y="660" style="fill:black;" font-family="Arial" font-size="16px">AL_name</text>
   <rect width="144" height="20" x="155" y="767" style="fill:#007;stroke:black;"/>
   <text width="144" height="20" x="160" y="781" style="fill:#fff;" font-family="Arial" font-size="16px"> airports</text>
   <rect width="144" height="20" x="155" y="787" style="fill:none;stroke:black;"/>
   <text width="144" height="20" x="160" y="801" style="fill:black;" font-family="Arial" font-size="16px">AP_code</text>
   <rect width="144" height="20" x="155" y="807" style="fill:none;stroke:black;"/>
   <text width="144" height="20" x="160" y="821" style="fill:black;" font-family="Arial" font-size="16px">AP_city</text>
   <rect width="144" height="20" x="155" y="827" style="fill:none;stroke:black;"/>
   <text width="144" height="20" x="160" y="841" style="fill:black;" font-family="Arial" font-size="16px">AP_state</text>
   <rect width="144" height="20" x="155" y="847" style="fill:none;stroke:black;"/>
   <text width="144" height="20" x="160" y="861" style="fill:black;" font-family="Arial" font-size="16px">AP_name</text>
   <rect width="144" height="20" x="746" y="224" style="fill:#007;stroke:black;"/>
   <text width="144" height="20" x="751" y="238" style="fill:#fff;" font-family="Arial" font-size="16px"> credit_cards</text>
   <rect width="144" height="20" x="746" y="244" style="fill:none;stroke:black;"/>
   <text width="144" height="20" x="751" y="258" style="fill:black;" font-family="Arial" font-size="16px">CCID</text>
   <rect width="144" height="20" x="746" y="264" style="fill:none;stroke:black;"/>
   <text width="144" height="20" x="751" y="278" style="fill:black;" font-family="Arial" font-size="16px">UPID</text>
   <rect width="144" height="20" x="746" y="284" style="fill:none;stroke:black;"/>
   <text width="144" height="20" x="751" y="298" style="fill:black;" font-family="Arial" font-size="16px">cardholder_name</text>
   <rect width="144" height="20" x="746" y="304" style="fill:none;stroke:black;"/>
   <text width="144" height="20" x="751" y="318" style="fill:black;" font-family="Arial" font-size="16px">card_number</text>
   <rect width="144" height="20" x="746" y="324" style="fill:none;stroke:black;"/>
   <text width="144" height="20" x="751" y="338" style="fill:black;" font-family="Arial" font-size="16px">card_expiry</text>
   <rect width="144" height="20" x="746" y="344" style="fill:none;stroke:black;"/>
   <text width="144" height="20" x="751" y="358" style="fill:black;" font-family="Arial" font-size="16px">billing1</text>
   <rect width="144" height="20" x="746" y="364" style="fill:none;stroke:black;"/>
   <text width="144" height="20" x="751" y="378" style="fill:black;" font-family="Arial" font-size="16px">billing2</text>
   <rect width="144" height="20" x="746" y="384" style="fill:none;stroke:black;"/>
   <text width="144" height="20" x="751" y="398" style="fill:black;" font-family="Arial" font-size="16px">city</text>
   <rect width="144" height="20" x="746" y="404" style="fill:none;stroke:black;"/>
   <text width="144" height="20" x="751" y="418" style="fill:black;" font-family="Arial" font-size="16px">state</text>
   <rect width="144" height="20" x="746" y="424" style="fill:none;stroke:black;"/>
   <text width="144" height="20" x="751" y="438" style="fill:black;" font-family="Arial" font-size="16px">zip</text>
   <rect width="144" height="20" x="746" y="444" style="fill:none;stroke:black;"/>
   <text width="144" height="20" x="751" y="458" style="fill:black;" font-family="Arial" font-size="16px">last_four</text>
   <rect width="144" height="20" x="746" y="464" style="fill:none;stroke:black;"/>
   <text width="144" height="20" x="751" y="478" style="fill:black;" font-family="Arial" font-size="16px">is_active</text>
   <rect width="144" height="20" x="1443" y="1069" style="fill:#007;stroke:black;"/>
   <text width="144" height="20" x="1448" y="1083" style="fill:#fff;" font-family="Arial" font-size="16px"> daily_report</text>
   <rect width="144" height="20" x="1443" y="1089" style="fill:none;stroke:black;"/>
   <text width="144" height="20" x="1448" y="1103" style="fill:black;" font-family="Arial" font-size="16px">DRID</text>
   <rect width="144" height="20" x="1443" y="1109" style="fill:none;stroke:black;"/>
   <text width="144" height="20" x="1448" y="1123" style="fill:black;" font-family="Arial" font-size="16px">WRID</text>
   <rect width="144" height="20" x="1443" y="1129" style="fill:none;stroke:black;"/>
   <text width="144" height="20" x="1448" y="1143" style="fill:black;" font-family="Arial" font-size="16px">MRID</text>
   <rect width="144" height="20" x="1443" y="1149" style="fill:none;stroke:black;"/>
   <text width="144" height="20" x="1448" y="1163" style="fill:black;" font-family="Arial" font-size="16px">in_progress</text>
   <rect width="144" height="20" x="1443" y="1169" style="fill:none;stroke:black;"/>
   <text width="144" height="20" x="1448" y="1183" style="fill:black;" font-family="Arial" font-size="16px">total_sales_pre_tax</text>
   <rect width="144" height="20" x="1443" y="1189" style="fill:none;stroke:black;"/>
   <text width="144" height="20" x="1448" y="1203" style="fill:black;" font-family="Arial" font-size="16px">tax</text>
   <rect width="144" height="20" x="1443" y="1209" style="fill:none;stroke:black;"/>
   <text width="144" height="20" x="1448" y="1223" style="fill:black;" font-family="Arial" font-size="16px">total_sales_post_tax</text>
   <rect width="144" height="20" x="1443" y="1229" style="fill:none;stroke:black;"/>
   <text width="144" height="20" x="1448" y="1243" style="fill:black;" font-family="Arial" font-size="16px">debit_sales</text>
   <rect width="144" height="20" x="1443" y="1249" style="fill:none;stroke:black;"/>
   <text width="144" height="20" x="1448" y="1263" style="fill:black;" font-family="Arial" font-size="16px">credit_sales</text>
   <rect width="144" height="20" x="1443" y="1269" style="fill:none;stroke:black;"/>
   <text width="144" height="20" x="1448" y="1283" style="fill:black;" font-family="Arial" font-size="16px">refunds</text>
   <rect width="144" height="20" x="1443" y="1289" style="fill:none;stroke:black;"/>
   <text width="144" height="20" x="1448" y="1303" style="fill:black;" font-family="Arial" font-size="16px">roundtrip_sales</text>
   <rect width="144" height="20" x="1443" y="1309" style="fill:none;stroke:black;"/>
   <text width="144" height="20" x="1448" y="1323" style="fill:black;" font-family="Arial" font-size="16px">one_way_sales</text>
   <rect width="144" height="20" x="1443" y="1329" style="fill:none;stroke:black;"/>
   <text width="144" height="20" x="1448" y="1343" style="fill:black;" font-family="Arial" font-size="16px">expenses</text>
   <rect width="144" height="20" x="1443" y="1349" style="fill:none;stroke:black;"/>
   <text width="144" height="20" x="1448" y="1363" style="fill:black;" font-family="Arial" font-size="16px">profit_loss</text>
   <rect width="144" height="20" x="411" y="1062" style="fill:#007;stroke:black;"/>
   <text width="144" height="20" x="416" y="1076" style="fill:#fff;" font-family="Arial" font-size="16px"> employees</text>
   <rect width="144" height="20" x="411" y="1082" style="fill:none;stroke:black;"/>
   <text width="144" height="20" x="416" y="1096" style="fill:black;" font-family="Arial" font-size="16px">EMID</text>
   <rect width="144" height="20" x="411" y="1102" style="fill:none;stroke:black;"/>
   <text width="144" height="20" x="416" y="1116" style="fill:black;" font-family="Arial" font-size="16px">UPEID</text>
   <rect width="144" height="20" x="411" y="1122" style="fill:none;stroke:black;"/>
   <text width="144" height="20" x="416" y="1136" style="fill:black;" font-family="Arial" font-size="16px">f_name</text>
   <rect width="144" height="20" x="411" y="1142" style="fill:none;stroke:black;"/>
   <text width="144" height="20" x="416" y="1156" style="fill:black;" font-family="Arial" font-size="16px">m_name</text>
   <rect width="144" height="20" x="411" y="1162" style="fill:none;stroke:black;"/>
   <text width="144" height="20" x="416" y="1176" style="fill:black;" font-family="Arial" font-size="16px">l_name</text>
   <rect width="144" height="20" x="411" y="1182" style="fill:none;stroke:black;"/>
   <text width="144" height="20" x="416" y="1196" style="fill:black;" font-family="Arial" font-size="16px">email</text>
   <rect width="144" height="20" x="411" y="1202" style="fill:none;stroke:black;"/>
   <text width="144" height="20" x="416" y="1216" style="fill:black;" font-family="Arial" font-size="16px">position</text>
   <rect width="144" height="20" x="411" y="1222" style="fill:none;stroke:black;"/>
   <text width="144" height="20" x="416" y="1236" style="fill:black;" font-family="Arial" font-size="16px">hire_date</text>
   <rect width="144" height="20" x="411" y="1242" style="fill:none;stroke:black;"/>
   <text width="144" height="20" x="416" y="1256" style="fill:black;" font-family="Arial" font-size="16px">salary</text>
   <rect width="144" height="20" x="411" y="1262" style="fill:none;stroke:black;"/>
   <text width="144" height="20" x="416" y="1276" style="fill:black;" font-family="Arial" font-size="16px">address1</text>
   <rect width="144" height="20" x="411" y="1282" style="fill:none;stroke:black;"/>
   <text width="144" height="20" x="416" y="1296" style="fill:black;" font-family="Arial" font-size="16px">address2</text>
   <rect width="144" height="20" x="411" y="1302" style="fill:none;stroke:black;"/>
   <text width="144" height="20" x="416" y="1316" style="fill:black;" font-family="Arial" font-size="16px">city</text>
   <rect width="144" height="20" x="411" y="1322" style="fill:none;stroke:black;"/>
   <text width="144" height="20" x="416" y="1336" style="fill:black;" font-family="Arial" font-size="16px">state</text>
   <rect width="144" height="20" x="411" y="1342" style="fill:none;stroke:black;"/>
   <text width="144" height="20" x="416" y="1356" style="fill:black;" font-family="Arial" font-size="16px">zip</text>
   <rect width="144" height="20" x="411" y="1362" style="fill:none;stroke:black;"/>
   <text width="144" height="20" x="416" y="1376" style="fill:black;" font-family="Arial" font-size="16px">phone</text>
   <rect width="144" height="20" x="411" y="1382" style="fill:none;stroke:black;"/>
   <text width="144" height="20" x="416" y="1396" style="fill:black;" font-family="Arial" font-size="16px">birth_date</text>
   <rect width="144" height="20" x="411" y="1402" style="fill:none;stroke:black;"/>
   <text width="144" height="20" x="416" y="1416" style="fill:black;" font-family="Arial" font-size="16px">password</text>
   <rect width="144" height="20" x="409" y="604" style="fill:#007;stroke:black;"/>
   <text width="144" height="20" x="414" y="618" style="fill:#fff;" font-family="Arial" font-size="16px"> external_flights</text>
   <rect width="144" height="20" x="409" y="624" style="fill:none;stroke:black;"/>
   <text width="144" height="20" x="414" y="638" style="fill:black;" font-family="Arial" font-size="16px">FDID</text>
   <rect width="144" height="20" x="409" y="644" style="fill:none;stroke:black;"/>
   <text width="144" height="20" x="414" y="658" style="fill:black;" font-family="Arial" font-size="16px">date</text>
   <rect width="144" height="20" x="409" y="664" style="fill:none;stroke:black;"/>
   <text width="144" height="20" x="414" y="678" style="fill:black;" font-family="Arial" font-size="16px">airline</text>
   <rect width="144" height="20" x="409" y="684" style="fill:none;stroke:black;"/>
   <text width="144" height="20" x="414" y="698" style="fill:black;" font-family="Arial" font-size="16px">tail_number</text>
   <rect width="144" height="20" x="409" y="704" style="fill:none;stroke:black;"/>
   <text width="144" height="20" x="414" y="718" style="fill:black;" font-family="Arial" font-size="16px">flight_number</text>
   <rect width="144" height="20" x="409" y="724" style="fill:none;stroke:black;"/>
   <text width="144" height="20" x="414" y="738" style="fill:black;" font-family="Arial" font-size="16px">origin</text>
   <rect width="144" height="20" x="409" y="744" style="fill:none;stroke:black;"/>
   <text width="144" height="20" x="414" y="758" style="fill:black;" font-family="Arial" font-size="16px">destination</text>
   <rect width="144" height="20" x="409" y="764" style="fill:none;stroke:black;"/>
   <text width="144" height="20" x="414" y="778" style="fill:black;" font-family="Arial" font-size="16px">dep_time</text>
   <rect width="144" height="20" x="409" y="784" style="fill:none;stroke:black;"/>
   <text width="144" height="20" x="414" y="798" style="fill:black;" font-family="Arial" font-size="16px">delay</text>
   <rect width="144" height="20" x="409" y="804" style="fill:none;stroke:black;"/>
   <text width="144" height="20" x="414" y="818" style="fill:black;" font-family="Arial" font-size="16px">arr_time</text>
   <rect width="144" height="20" x="409" y="824" style="fill:none;stroke:black;"/>
   <text width="144" height="20" x="414" y="838" style="fill:black;" font-family="Arial" font-size="16px">cancelled</text>
   <rect width="144" height="20" x="409" y="844" style="fill:none;stroke:black;"/>
   <text width="144" height="20" x="414" y="858" style="fill:black;" font-family="Arial" font-size="16px">duration</text>
   <rect width="144" height="20" x="409" y="864" style="fill:none;stroke:black;"/>
   <text width="144" height="20" x="414" y="878" style="fill:black;" font-family="Arial" font-size="16px">distance</text>
   <rect width="144" height="20" x="409" y="884" style="fill:none;stroke:black;"/>
   <text width="144" height="20" x="414" y="898" style="fill:black;" font-family="Arial" font-size="16px">price</text>
   <rect width="144" height="20" x="1436" y="465" style="fill:#007;stroke:black;"/>
   <text width="144" height="20" x="1441" y="479" style="fill:#fff;" font-family="Arial" font-size="16px"> feedback</text>
   <rect width="144" height="20" x="1436" y="485" style="fill:none;stroke:black;"/>
   <text width="144" height="20" x="1441" y="499" style="fill:black;" font-family="Arial" font-size="16px">FBID</text>
   <rect width="144" height="20" x="1436" y="505" style="fill:none;stroke:black;"/>
   <text width="144" height="20" x="1441" y="519" style="fill:black;" font-family="Arial" font-size="16px">name</text>
   <rect width="144" height="20" x="1436" y="525" style="fill:none;stroke:black;"/>
   <text width="144" height="20" x="1441" y="539" style="fill:black;" font-family="Arial" font-size="16px">email</text>
   <rect width="144" height="20" x="1436" y="545" style="fill:none;stroke:black;"/>
   <text width="144" height="20" x="1441" y="559" style="fill:black;" font-family="Arial" font-size="16px">feedback</text>
   <rect width="144" height="20" x="1436" y="565" style="fill:none;stroke:black;"/>
   <text width="144" height="20" x="1441" y="579" style="fill:black;" font-family="Arial" font-size="16px">time_stamp</text>
   <rect width="144" height="20" x="146" y="99" style="fill:#007;stroke:black;"/>
   <text width="144" height="20" x="151" y="113" style="fill:#fff;" font-family="Arial" font-size="16px"> login_logs</text>
   <rect width="144" height="20" x="146" y="119" style="fill:none;stroke:black;"/>
   <text width="144" height="20" x="151" y="133" style="fill:black;" font-family="Arial" font-size="16px">LLID</text>
   <rect width="144" height="20" x="146" y="139" style="fill:none;stroke:black;"/>
   <text width="144" height="20" x="151" y="153" style="fill:black;" font-family="Arial" font-size="16px">UPID</text>
   <rect width="144" height="20" x="146" y="159" style="fill:none;stroke:black;"/>
   <text width="144" height="20" x="151" y="173" style="fill:black;" font-family="Arial" font-size="16px">time_stamp</text>
   <rect width="144" height="20" x="146" y="179" style="fill:none;stroke:black;"/>
   <text width="144" height="20" x="151" y="193" style="fill:black;" font-family="Arial" font-size="16px">status</text>
   <rect width="144" height="20" x="146" y="199" style="fill:none;stroke:black;"/>
   <text width="144" height="20" x="151" y="213" style="fill:black;" font-family="Arial" font-size="16px">log</text>
   <rect width="144" height="20" x="1393" y="28" style="fill:#007;stroke:black;"/>
   <text width="144" height="20" x="1398" y="42" style="fill:#fff;" font-family="Arial" font-size="16px"> model_lookup</text>
   <rect width="144" height="20" x="1393" y="48" style="fill:none;stroke:black;"/>
   <text width="144" height="20" x="1398" y="62" style="fill:black;" font-family="Arial" font-size="16px">tail_number</text>
   <rect width="144" height="20" x="1393" y="68" style="fill:none;stroke:black;"/>
   <text width="144" height="20" x="1398" y="82" style="fill:black;" font-family="Arial" font-size="16px">model_number</text>
   <rect width="144" height="20" x="1077" y="1068" style="fill:#007;stroke:black;"/>
   <text width="144" height="20" x="1082" y="1082" style="fill:#fff;" font-family="Arial" font-size="16px"> monthly_report</text>
   <rect width="144" height="20" x="1077" y="1088" style="fill:none;stroke:black;"/>
   <text width="144" height="20" x="1082" y="1102" style="fill:black;" font-family="Arial" font-size="16px">MRID</text>
   <rect width="144" height="20" x="1077" y="1108" style="fill:none;stroke:black;"/>
   <text width="144" height="20" x="1082" y="1122" style="fill:black;" font-family="Arial" font-size="16px">in_progress</text>
   <rect width="144" height="20" x="1077" y="1128" style="fill:none;stroke:black;"/>
   <text width="144" height="20" x="1082" y="1142" style="fill:black;" font-family="Arial" font-size="16px">total_sales_pre_tax</text>
   <rect width="144" height="20" x="1077" y="1148" style="fill:none;stroke:black;"/>
   <text width="144" height="20" x="1082" y="1162" style="fill:black;" font-family="Arial" font-size="16px">tax</text>
   <rect width="144" height="20" x="1077" y="1168" style="fill:none;stroke:black;"/>
   <text width="144" height="20" x="1082" y="1182" style="fill:black;" font-family="Arial" font-size="16px">total_sales_post_tax</text>
   <rect width="144" height="20" x="1077" y="1188" style="fill:none;stroke:black;"/>
   <text width="144" height="20" x="1082" y="1202" style="fill:black;" font-family="Arial" font-size="16px">debit_sales</text>
   <rect width="144" height="20" x="1077" y="1208" style="fill:none;stroke:black;"/>
   <text width="144" height="20" x="1082" y="1222" style="fill:black;" font-family="Arial" font-size="16px">credit_sales</text>
   <rect width="144" height="20" x="1077" y="1228" style="fill:none;stroke:black;"/>
   <text width="144" height="20" x="1082" y="1242" style="fill:black;" font-family="Arial" font-size="16px">refunds</text>
   <rect width="144" height="20" x="1077" y="1248" style="fill:none;stroke:black;"/>
   <text width="144" height="20" x="1082" y="1262" style="fill:black;" font-family="Arial" font-size="16px">roundtrip_sales</text>
   <rect width="144" height="20" x="1077" y="1268" style="fill:none;stroke:black;"/>
   <text width="144" height="20" x="1082" y="1282" style="fill:black;" font-family="Arial" font-size="16px">one_way_sales</text>
   <rect width="144" height="20" x="1077" y="1288" style="fill:none;stroke:black;"/>
   <text width="144" height="20" x="1082" y="1302" style="fill:black;" font-family="Arial" font-size="16px">expenses</text>
   <rect width="144" height="20" x="1077" y="1308" style="fill:none;stroke:black;"/>
   <text width="144" height="20" x="1082" y="1322" style="fill:black;" font-family="Arial" font-size="16px">profit_loss</text>
   <rect width="144" height="20" x="157" y="1066" style="fill:#007;stroke:black;"/>
   <text width="144" height="20" x="162" y="1080" style="fill:#fff;" font-family="Arial" font-size="16px"> permissions</text>
   <rect width="144" height="20" x="157" y="1086" style="fill:none;stroke:black;"/>
   <text width="144" height="20" x="162" y="1100" style="fill:black;" font-family="Arial" font-size="16px">UPEID</text>
   <rect width="144" height="20" x="157" y="1106" style="fill:none;stroke:black;"/>
   <text width="144" height="20" x="162" y="1120" style="fill:black;" font-family="Arial" font-size="16px">is_admin</text>
   <rect width="144" height="20" x="157" y="1126" style="fill:none;stroke:black;"/>
   <text width="144" height="20" x="162" y="1140" style="fill:black;" font-family="Arial" font-size="16px">is_employee</text>
   <rect width="144" height="20" x="157" y="1146" style="fill:none;stroke:black;"/>
   <text width="144" height="20" x="162" y="1160" style="fill:black;" font-family="Arial" font-size="16px">is_customer</text>
   <rect width="144" height="20" x="747" y="625" style="fill:#007;stroke:black;"/>
   <text width="144" height="20" x="752" y="639" style="fill:#fff;" font-family="Arial" font-size="16px"> reservations</text>
   <rect width="144" height="20" x="747" y="645" style="fill:none;stroke:black;"/>
   <text width="144" height="20" x="752" y="659" style="fill:black;" font-family="Arial" font-size="16px">RSID</text>
   <rect width="144" height="20" x="747" y="665" style="fill:none;stroke:black;"/>
   <text width="144" height="20" x="752" y="679" style="fill:black;" font-family="Arial" font-size="16px">UPID</text>
   <rect width="144" height="20" x="747" y="685" style="fill:none;stroke:black;"/>
   <text width="144" height="20" x="752" y="699" style="fill:black;" font-family="Arial" font-size="16px">FDID</text>
   <rect width="144" height="20" x="747" y="705" style="fill:none;stroke:black;"/>
   <text width="144" height="20" x="752" y="719" style="fill:black;" font-family="Arial" font-size="16px">num_tickets</text>
   <rect width="144" height="20" x="756" y="26" style="fill:#007;stroke:black;"/>
   <text width="144" height="20" x="761" y="40" style="fill:#fff;" font-family="Arial" font-size="16px"> status_logs</text>
   <rect width="144" height="20" x="756" y="46" style="fill:none;stroke:black;"/>
   <text width="144" height="20" x="761" y="60" style="fill:black;" font-family="Arial" font-size="16px">STID</text>
   <rect width="144" height="20" x="756" y="66" style="fill:none;stroke:black;"/>
   <text width="144" height="20" x="761" y="80" style="fill:black;" font-family="Arial" font-size="16px">UPID</text>
   <rect width="144" height="20" x="756" y="86" style="fill:none;stroke:black;"/>
   <text width="144" height="20" x="761" y="100" style="fill:black;" font-family="Arial" font-size="16px">time_stamp</text>
   <rect width="144" height="20" x="756" y="106" style="fill:none;stroke:black;"/>
   <text width="144" height="20" x="761" y="120" style="fill:black;" font-family="Arial" font-size="16px">is_error</text>
   <rect width="144" height="20" x="756" y="126" style="fill:none;stroke:black;"/>
   <text width="144" height="20" x="761" y="140" style="fill:black;" font-family="Arial" font-size="16px">log</text>
   <rect width="144" height="20" x="1072" y="721" style="fill:#007;stroke:black;"/>
   <text width="144" height="20" x="1077" y="735" style="fill:#fff;" font-family="Arial" font-size="16px"> tickets</text>
   <rect width="144" height="20" x="1072" y="741" style="fill:none;stroke:black;"/>
   <text width="144" height="20" x="1077" y="755" style="fill:black;" font-family="Arial" font-size="16px">TKID</text>
   <rect width="144" height="20" x="1072" y="761" style="fill:none;stroke:black;"/>
   <text width="144" height="20" x="1077" y="775" style="fill:black;" font-family="Arial" font-size="16px">RSID</text>
   <rect width="144" height="20" x="1072" y="781" style="fill:none;stroke:black;"/>
   <text width="144" height="20" x="1077" y="795" style="fill:black;" font-family="Arial" font-size="16px">FFID</text>
   <rect width="144" height="20" x="1072" y="801" style="fill:none;stroke:black;"/>
   <text width="144" height="20" x="1077" y="815" style="fill:black;" font-family="Arial" font-size="16px">f_name</text>
   <rect width="144" height="20" x="1072" y="821" style="fill:none;stroke:black;"/>
   <text width="144" height="20" x="1077" y="835" style="fill:black;" font-family="Arial" font-size="16px">l_name</text>
   <rect width="144" height="20" x="1072" y="841" style="fill:none;stroke:black;"/>
   <text width="144" height="20" x="1077" y="855" style="fill:black;" font-family="Arial" font-size="16px">seat</text>
   <rect width="144" height="20" x="1072" y="861" style="fill:none;stroke:black;"/>
   <text width="144" height="20" x="1077" y="875" style="fill:black;" font-family="Arial" font-size="16px">email</text>
   <rect width="144" height="20" x="1072" y="881" style="fill:none;stroke:black;"/>
   <text width="144" height="20" x="1077" y="895" style="fill:black;" font-family="Arial" font-size="16px">bags</text>
   <rect width="144" height="20" x="1072" y="901" style="fill:none;stroke:black;"/>
   <text width="144" height="20" x="1077" y="915" style="fill:black;" font-family="Arial" font-size="16px">class</text>
   <rect width="144" height="20" x="749" y="1026" style="fill:#007;stroke:black;"/>
   <text width="144" height="20" x="754" y="1040" style="fill:#fff;" font-family="Arial" font-size="16px"> timecard</text>
   <rect width="144" height="20" x="749" y="1046" style="fill:none;stroke:black;"/>
   <text width="144" height="20" x="754" y="1060" style="fill:black;" font-family="Arial" font-size="16px">TCID</text>
   <rect width="144" height="20" x="749" y="1066" style="fill:none;stroke:black;"/>
   <text width="144" height="20" x="754" y="1080" style="fill:black;" font-family="Arial" font-size="16px">EMID</text>
   <rect width="144" height="20" x="749" y="1086" style="fill:none;stroke:black;"/>
   <text width="144" height="20" x="754" y="1100" style="fill:black;" font-family="Arial" font-size="16px">date</text>
   <rect width="144" height="20" x="749" y="1106" style="fill:none;stroke:black;"/>
   <text width="144" height="20" x="754" y="1120" style="fill:black;" font-family="Arial" font-size="16px">start_time</text>
   <rect width="144" height="20" x="749" y="1126" style="fill:none;stroke:black;"/>
   <text width="144" height="20" x="754" y="1140" style="fill:black;" font-family="Arial" font-size="16px">end_time</text>
   <rect width="144" height="20" x="749" y="1146" style="fill:none;stroke:black;"/>
   <text width="144" height="20" x="754" y="1160" style="fill:black;" font-family="Arial" font-size="16px">hours</text>
   <rect width="144" height="20" x="749" y="1166" style="fill:none;stroke:black;"/>
   <text width="144" height="20" x="754" y="1180" style="fill:black;" font-family="Arial" font-size="16px">hour_type</text>
   <rect width="144" height="20" x="749" y="1186" style="fill:none;stroke:black;"/>
   <text width="144" height="20" x="754" y="1200" style="fill:black;" font-family="Arial" font-size="16px">wage</text>
   <rect width="144" height="20" x="749" y="1206" style="fill:none;stroke:black;"/>
   <text width="144" height="20" x="754" y="1220" style="fill:black;" font-family="Arial" font-size="16px">is_clockin</text>
   <rect width="144" height="20" x="1072" y="462" style="fill:#007;stroke:black;"/>
   <text width="144" height="20" x="1077" y="476" style="fill:#fff;" font-family="Arial" font-size="16px"> transactions</text>
   <rect width="144" height="20" x="1072" y="482" style="fill:none;stroke:black;"/>
   <text width="144" height="20" x="1077" y="496" style="fill:black;" font-family="Arial" font-size="16px">TRID</text>
   <rect width="144" height="20" x="1072" y="502" style="fill:none;stroke:black;"/>
   <text width="144" height="20" x="1077" y="516" style="fill:black;" font-family="Arial" font-size="16px">UPID</text>
   <rect width="144" height="20" x="1072" y="522" style="fill:none;stroke:black;"/>
   <text width="144" height="20" x="1077" y="536" style="fill:black;" font-family="Arial" font-size="16px">RSID</text>
   <rect width="144" height="20" x="1072" y="542" style="fill:none;stroke:black;"/>
   <text width="144" height="20" x="1077" y="556" style="fill:black;" font-family="Arial" font-size="16px">amount</text>
   <rect width="144" height="20" x="1072" y="562" style="fill:none;stroke:black;"/>
   <text width="144" height="20" x="1077" y="576" style="fill:black;" font-family="Arial" font-size="16px">time_stamp</text>
   <rect width="144" height="20" x="1072" y="582" style="fill:none;stroke:black;"/>
   <text width="144" height="20" x="1077" y="596" style="fill:black;" font-family="Arial" font-size="16px">is_refund</text>
   <rect width="144" height="20" x="1072" y="602" style="fill:none;stroke:black;"/>
   <text width="144" height="20" x="1077" y="616" style="fill:black;" font-family="Arial" font-size="16px">log</text>
   <rect width="144" height="20" x="415" y="102" style="fill:#007;stroke:black;"/>
   <text width="144" height="20" x="420" y="116" style="fill:#fff;" font-family="Arial" font-size="16px"> users</text>
   <rect width="144" height="20" x="415" y="122" style="fill:none;stroke:black;"/>
   <text width="144" height="20" x="420" y="136" style="fill:black;" font-family="Arial" font-size="16px">UPID</text>
   <rect width="144" height="20" x="415" y="142" style="fill:none;stroke:black;"/>
   <text width="144" height="20" x="420" y="156" style="fill:black;" font-family="Arial" font-size="16px">UPEID</text>
   <rect width="144" height="20" x="415" y="162" style="fill:none;stroke:black;"/>
   <text width="144" height="20" x="420" y="176" style="fill:black;" font-family="Arial" font-size="16px">f_name</text>
   <rect width="144" height="20" x="415" y="182" style="fill:none;stroke:black;"/>
   <text width="144" height="20" x="420" y="196" style="fill:black;" font-family="Arial" font-size="16px">m_name</text>
   <rect width="144" height="20" x="415" y="202" style="fill:none;stroke:black;"/>
   <text width="144" height="20" x="420" y="216" style="fill:black;" font-family="Arial" font-size="16px">l_name</text>
   <rect width="144" height="20" x="415" y="222" style="fill:none;stroke:black;"/>
   <text width="144" height="20" x="420" y="236" style="fill:black;" font-family="Arial" font-size="16px">email</text>
   <rect width="144" height="20" x="415" y="242" style="fill:none;stroke:black;"/>
   <text width="144" height="20" x="420" y="256" style="fill:black;" font-family="Arial" font-size="16px">phone</text>
   <rect width="144" height="20" x="415" y="262" style="fill:none;stroke:black;"/>
   <text width="144" height="20" x="420" y="276" style="fill:black;" font-family="Arial" font-size="16px">birth_date</text>
   <rect width="144" height="20" x="415" y="282" style="fill:none;stroke:black;"/>
   <text width="144" height="20" x="420" y="296" style="fill:black;" font-family="Arial" font-size="16px">address1</text>
   <rect width="144" height="20" x="415" y="302" style="fill:none;stroke:black;"/>
   <text width="144" height="20" x="420" y="316" style="fill:black;" font-family="Arial" font-size="16px">address2</text>
   <rect width="144" height="20" x="415" y="322" style="fill:none;stroke:black;"/>
   <text width="144" height="20" x="420" y="336" style="fill:black;" font-family="Arial" font-size="16px">city</text>
   <rect width="144" height="20" x="415" y="342" style="fill:none;stroke:black;"/>
   <text width="144" height="20" x="420" y="356" style="fill:black;" font-family="Arial" font-size="16px">state</text>
   <rect width="144" height="20" x="415" y="362" style="fill:none;stroke:black;"/>
   <text width="144" height="20" x="420" y="376" style="fill:black;" font-family="Arial" font-size="16px">zip</text>
   <rect width="144" height="20" x="415" y="382" style="fill:none;stroke:black;"/>
   <text width="144" height="20" x="420" y="396" style="fill:black;" font-family="Arial" font-size="16px">password</text>
</svg>
